<?xml version="1.0" encoding="UTF-8" standalone="no"?>
<svg
   viewBox="0 0 24 24"
   width="20"
   height="20"
   stroke="currentColor"
   stroke-width="1.5"
   fill="none"
   stroke-linecap="round"
   stroke-linejoin="round"
   version="1.1"
   id="svg6"
   sodipodi:docname="reset.svg"
   inkscape:version="1.2.2 (b0a8486541, 2022-12-01)"
   xmlns:inkscape="http://www.inkscape.org/namespaces/inkscape"
   xmlns:sodipodi="http://sodipodi.sourceforge.net/DTD/sodipodi-0.dtd"
   xmlns="http://www.w3.org/2000/svg"
   xmlns:svg="http://www.w3.org/2000/svg">
  <defs
     id="defs10" />
  <sodipodi:namedview
     id="namedview8"
     pagecolor="#ffffff"
     bordercolor="#999999"
     borderopacity="1"
     inkscape:showpageshadow="0"
     inkscape:pageopacity="0"
     inkscape:pagecheckerboard="0"
     inkscape:deskcolor="#d1d1d1"
     showgrid="false"
     inkscape:zoom="6.6821591"
     inkscape:cx="-6.6595242"
     inkscape:cy="33.297621"
     inkscape:window-width="1920"
     inkscape:window-height="1008"
     inkscape:window-x="0"
     inkscape:window-y="0"
     inkscape:window-maximized="1"
     inkscape:current-layer="svg6" />
  <path
     style="color:#000000;fill:#000000;stroke-width:0;stroke-dasharray:none"
     d="m 1.2000005,12.000001 c 0,5.95438 4.8456201,10.799999 10.8000005,10.799999 5.954379,0 10.799998,-4.845619 10.799998,-10.799999 0,-5.9543804 -4.845619,-10.8000005 -10.799998,-10.8000005 -2.9771908,0 -5.6771907,1.211405 -7.6328932,3.1671073 l 1.2596031,1.2596031 c 1.6286498,-1.62865 3.8804977,-2.634102 6.3732901,-2.634102 4.985582,0 9.007389,4.0218082 9.007389,9.0073921 0,4.985583 -4.021807,9.00739 -9.007389,9.00739 -4.9855838,0 -9.0073921,-4.021807 -9.0073921,-9.00739"
     id="path1721"
     sodipodi:nodetypes="csssccsssc" />
  <path
     style="fill:#000000;fill-opacity:1;stroke:none;stroke-width:1.93929;stroke-dasharray:none"
     d="M 4.6550983,0.63236135 1.7484646,7.2086536 8.8229051,7.0068632"
     id="path6213"
     sodipodi:nodetypes="ccc" />
</svg>
